<?xml version="1.0" standalone="no"?><!DOCTYPE svg PUBLIC "-//W3C//DTD SVG 1.1//EN" "http://www.w3.org/Graphics/SVG/1.1/DTD/svg11.dtd"><svg t="1522826233911" class="icon" style="" viewBox="0 0 1024 1024" version="1.1" xmlns="http://www.w3.org/2000/svg" p-id="943" xmlns:xlink="http://www.w3.org/1999/xlink" width="48" height="48"><defs><style type="text/css"></style></defs><path d="M0.048761 153.266833c0-84.669736 68.775878-153.299352 153.299352-153.299351h717.368809c84.669736 0 153.299352 68.775878 153.299352 153.299351v717.36881c0 84.653485-68.775878 153.299352-153.299352 153.299351H153.348113c-84.669736 0-153.299352-68.775878-153.299352-153.299351V153.266833z m328.148045 109.306842v564.670759l92.031616-0.130011V617.097724h144.39359c139.956961 0 209.984196-65.070561 209.984196-181.332997 0-115.466118-69.978481-173.191052-208.326554-173.191052h-238.082848z m92.047867 78.689225h132.383814c39.718395 0 69.312174 6.890589 88.001271 21.468085 18.689097 13.797429 28.813713 36.809396 28.813713 69.783464 0 32.974068-9.344549 56.74985-28.033646 71.327346-18.689097 13.797429-48.282876 21.468085-88.781338 21.468085h-132.383814V341.2629z" fill="#3ED2FD" p-id="944"></path></svg>