<?xml version="1.0" standalone="no"?><!DOCTYPE svg PUBLIC "-//W3C//DTD SVG 1.1//EN" "http://www.w3.org/Graphics/SVG/1.1/DTD/svg11.dtd"><svg t="1522827416864" class="icon" style="" viewBox="0 0 1024 1024" version="1.1" xmlns="http://www.w3.org/2000/svg" p-id="7090" xmlns:xlink="http://www.w3.org/1999/xlink" width="48" height="48"><defs><style type="text/css"></style></defs><path d="M960 218.24A96 96 0 0 0 864 128h-96V96a96 96 0 0 0-96-96H352a96 96 0 0 0-96 96v32H160a96 96 0 0 0-96 90.24V288a64 64 0 0 0 64 64v544a128 128 0 0 0 128 128h512a128 128 0 0 0 128-128V352a64 64 0 0 0 64-64V218.24zM320 96a32 32 0 0 1 32-32h320a32 32 0 0 1 32 32v32H320z m512 800a64 64 0 0 1-64 64H256a64 64 0 0 1-64-64V352h640z m64-640v32H128V224a32 32 0 0 1 32-32h704a32 32 0 0 1 32 32z" fill="#d81e06" p-id="7091"></path><path d="M288 896h64a32 32 0 0 0 32-32V448a32 32 0 0 0-32-32H288a32 32 0 0 0-32 32v416a32 32 0 0 0 32 32z m0-448h64v416H288zM480 896h64a32 32 0 0 0 32-32V448a32 32 0 0 0-32-32h-64a32 32 0 0 0-32 32v416a32 32 0 0 0 32 32z m0-448h64v416h-64zM672 896h64a32 32 0 0 0 32-32V448a32 32 0 0 0-32-32h-64a32 32 0 0 0-32 32v416a32 32 0 0 0 32 32z m0-448h64v416h-64z" fill="#d81e06" p-id="7092"></path></svg>