<?xml version="1.0" encoding="UTF-8"?>
<svg width="488px" height="488px" viewBox="0 0 488 488" version="1.1" xmlns="http://www.w3.org/2000/svg" xmlns:xlink="http://www.w3.org/1999/xlink">
    <!-- Generator: Sketch 49.1 (51147) - http://www.bohemiancoding.com/sketch -->
    <title>智能井盖（正常）</title>
    <desc>Created with Sketch.</desc>
    <defs></defs>
    <g id="Page-1" stroke="none" stroke-width="1" fill="none" fill-rule="evenodd">
        <g id="智能井盖（正常）" transform="translate(4.000000, 4.000000)" fill="#1467B6" fill-rule="nonzero">
            <path d="M115.582822,262.822086 L114.846626,257.668712 L74.3558283,257.668712 L75.8282208,265.030675 C86.8711655,333.496933 142.822086,389.447853 211.288343,400.490797 L218.650307,401.96319 L218.650307,363.680982 L213.496933,362.944785 C161.96319,352.638037 123.680982,313.619632 115.582822,262.822086 Z M116.319018,217.177914 C125.88957,167.116564 164.171779,128.09816 213.496933,117.791411 L218.650307,117.055215 L218.650307,78.7730063 L211.288343,80.2453988 C142.822086,91.2883434 86.8711655,147.239264 75.8282208,215.705521 L74.3558283,223.067485 L114.846626,223.067485 L116.319018,217.177914 Z M362.208589,216.441718 L362.944785,221.595092 L403.435583,221.595092 L401.96319,214.233129 C390.920245,145.766871 334.969325,89.8159509 266.503067,78.7730062 L259.141104,77.3006133 L259.141104,117.791411 L264.294479,118.527608 C315.092025,129.570552 353.374233,167.852761 362.208589,216.441718 Z M326.134969,242.944785 L326.134969,237.055215 C323.190184,191.411043 287.116564,156.07362 241.472393,156.07362 C217.91411,156.07362 196.564417,164.907975 179.631902,181.840491 C163.435583,198.03681 153.865031,220.858896 153.865031,243.680982 C153.865031,290.797546 192.883436,329.079755 241.472393,329.079755 C287.85276,327.607362 326.134969,290.06135 326.134969,242.944785 Z M240,288.588957 C213.496933,288.588957 192.883436,267.97546 192.883436,241.472392 C192.883436,214.969325 213.496933,194.355828 240,194.355828 C266.503067,194.355828 287.116564,214.969325 287.116564,241.472392 C287.116564,267.97546 266.503067,288.588957 240,288.588957 Z M364.417178,262.822086 C354.11043,311.411043 315.828221,350.429448 266.503067,362.944785 L262.085889,364.417178 L262.085889,401.96319 L269.447853,400.490797 C337.914111,389.447853 393.865031,333.496933 404.907975,265.030675 L406.380368,257.668712 L365.88957,257.668712 L364.417178,262.822086 Z" id="Shape"></path>
            <path d="M240,0 C107.484662,0 0,107.484662 0,240 C0,372.515338 107.484662,480 240,480 C372.515338,480 480,372.515338 480,240 C480,107.484662 372.515338,0 240,0 Z M36.8098158,240 L36.8098158,238.527607 L36.8098158,240 Z M256.932515,442.453987 L256.932515,423.312884 C256.932515,414.478528 249.570552,407.116565 240.736196,407.116564 C231.90184,407.116564 224.539877,414.478527 224.539877,423.312884 L224.539877,442.453987 C125.153374,434.355828 45.6441717,355.582822 37.5460125,256.196319 L57.4233127,256.196319 C66.2576686,256.196319 73.6196316,248.834356 73.619632,240 C73.619632,231.165644 66.2576691,223.803681 57.4233127,223.803681 L37.5460125,223.803681 C45.6441717,124.417178 124.417178,44.9079755 223.803681,37.5460125 L223.803681,56.6871164 C223.803681,65.5214723 231.165644,72.8834353 240,72.8834358 C248.834356,72.8834363 256.196319,65.5214728 256.196319,56.6871164 L256.196319,37.5460125 C355.582822,45.6441717 434.355828,125.153374 442.453987,223.803681 L424.04908,223.803681 C415.214724,223.803681 407.852761,231.165644 407.852761,240 C407.852761,248.834356 415.214724,256.196319 424.04908,256.196319 L442.453987,256.196319 C434.355828,354.846626 355.582822,434.355828 256.932515,442.453987 Z" id="Shape"></path>
        </g>
    </g>
</svg>