<?xml version="1.0" encoding="UTF-8"?>
<svg width="488px" height="488px" viewBox="0 0 488 488" version="1.1" xmlns="http://www.w3.org/2000/svg" xmlns:xlink="http://www.w3.org/1999/xlink">
    <!-- Generator: Sketch 49.1 (51147) - http://www.bohemiancoding.com/sketch -->
    <title>智能井盖（异常）</title>
    <desc>Created with Sketch.</desc>
    <defs></defs>
    <g id="Page-1" stroke="none" stroke-width="1" fill="none" fill-rule="evenodd">
        <g id="智能井盖（异常）" transform="translate(4.000000, 4.000000)" fill-rule="nonzero">
            <path d="M240,0 C107.484662,0 0,107.484662 0,240 C0,372.515338 107.484662,480 240,480 C372.515338,480 480,372.515338 480,240 C480,107.484662 372.515338,0 240,0 Z M36.8098158,240 L36.8098158,238.527607 L36.8098158,240 Z M256.932515,442.453987 L256.932515,423.312884 C256.932515,414.478528 249.570552,407.116565 240.736196,407.116564 C231.90184,407.116564 224.539877,414.478527 224.539877,423.312884 L224.539877,442.453987 C125.153374,434.355828 45.6441717,355.582822 37.5460125,256.196319 L57.4233127,256.196319 C66.2576686,256.196319 73.6196316,248.834356 73.619632,240 C73.619632,231.165644 66.2576691,223.803681 57.4233127,223.803681 L37.5460125,223.803681 C45.6441717,124.417178 124.417178,44.9079755 223.803681,37.5460125 L223.803681,56.6871164 C223.803681,65.5214723 231.165644,72.8834353 240,72.8834358 C248.834356,72.8834363 256.196319,65.5214728 256.196319,56.6871164 L256.196319,37.5460125 C355.582822,45.6441717 434.355828,125.153374 442.453987,223.803681 L424.04908,223.803681 C415.214724,223.803681 407.852761,231.165644 407.852761,240 C407.852761,248.834356 415.214724,256.196319 424.04908,256.196319 L442.453987,256.196319 C434.355828,354.846626 355.582822,434.355828 256.932515,442.453987 Z" id="Shape" fill="#1467B6"></path>
            <g id="注意" transform="translate(99.344262, 106.229508)" fill="#F4EA2A">
                <path d="M278.764055,211.284708 L155.73924,8.47650389 C152.533996,3.2022348 146.814834,0 140.655738,0 C134.496641,0 128.77748,3.23362926 125.572235,8.47650389 L2.54742053,211.284708 C-0.752095584,216.715949 -0.846367473,223.528547 2.26460486,229.053972 C5.37557719,234.610791 11.2518583,238.032787 17.6309227,238.032787 L263.680553,238.032787 C270.028193,238.032787 275.904474,234.610791 279.046871,229.053972 C282.157843,223.528547 282.063571,216.747344 278.764055,211.284708 Z M17.6309227,220.420495 L140.655738,17.6122914 L263.680553,220.420495 L17.6309227,220.420495 Z" id="Shape"></path>
                <path d="M140.81082,151.589171 C145.616086,151.589171 149.522302,147.640041 149.522302,142.813326 L149.522302,113.03814 C149.522302,108.180083 145.647087,104.262295 140.81082,104.262295 C136.005554,104.262295 132.13034,108.211425 132.13034,113.03814 L132.13034,142.813326 C132.13034,147.640041 136.005554,151.589171 140.81082,151.589171 Z M140.655811,183.934426 C146.639142,183.934426 151.47541,179.045027 151.47541,172.995963 C151.47541,166.946899 146.639142,162.0575 140.655811,162.0575 C134.67248,162.0575 129.836213,166.946899 129.836213,172.995963 C129.805211,179.045027 134.67248,183.934426 140.655811,183.934426 Z" id="Shape"></path>
                <path d="M220.784751,197.75245 L76.7031131,197.75245 C73.469204,197.75245 70.8318413,200.392778 70.8318413,203.630323 C70.8318413,206.867869 73.469204,209.508197 76.7031131,209.508197 L231.177216,209.508197 C233.312224,209.508197 235.258849,208.376628 236.294956,206.522111 C237.331062,204.667595 237.299665,202.404457 236.200764,200.581373 L183.139538,112.916193 C181.475487,110.150135 177.864812,109.238593 175.070464,110.935947 C172.276115,112.601868 171.396994,116.216603 173.092442,119.014094 L220.784751,197.75245 Z M135.635611,51.0256443 L45.1175547,200.581373 C43.4221072,203.347431 44.3326253,206.962166 47.0955767,208.65952 C48.037492,209.225304 49.1049959,209.508197 50.1411027,209.508197 C52.1191248,209.508197 54.0657497,208.502357 55.1646508,206.679274 L140.659159,65.4217191 L159.591656,96.7284668 C161.287104,99.4945249 164.897779,100.406067 167.66073,98.7087129 C170.455079,97.0113591 171.3342,93.3966242 169.638752,90.6305662 L145.682707,51.0256443 C144.615203,49.2654256 142.699976,48.1967213 140.659159,48.1967213 C138.618343,48.1967213 136.703115,49.2654256 135.635611,51.0256443 Z" id="Shape"></path>
            </g>
        </g>
    </g>
</svg>