<?xml version="1.0" encoding="UTF-8"?>
<svg width="488px" height="488px" viewBox="0 0 488 488" version="1.1" xmlns="http://www.w3.org/2000/svg" xmlns:xlink="http://www.w3.org/1999/xlink">
    <!-- Generator: Sketch 49.1 (51147) - http://www.bohemiancoding.com/sketch -->
    <title>停车场（不空）</title>
    <desc>Created with Sketch.</desc>
    <defs></defs>
    <g id="Page-1" stroke="none" stroke-width="1" fill="none" fill-rule="evenodd">
        <g id="停车场（不空）" transform="translate(4.000000, 4.000000)" fill="#E70000" fill-rule="nonzero">
            <path d="M240,0.514494519 C107.769132,0.514494519 0.234146341,107.918499 0.234146341,239.988307 C0.234146341,372.058114 107.769132,479.462119 240,479.462119 C372.230868,479.462119 479.765854,372.058114 479.765854,239.988307 C479.765854,107.918499 372.230868,0.514494519 240,0.514494519 Z M240,449.527893 C124.312976,449.527893 30.204878,355.534421 30.204878,239.988307 C30.204878,124.442192 124.312976,30.4487211 240,30.4487211 C355.687024,30.4487211 449.795122,124.442192 449.795122,239.988307 C449.795122,355.534421 355.687024,449.527893 240,449.527893 Z" id="Shape"></path>
            <path d="M265.774829,122.047454 L168.669659,122.047454 L168.669659,361.521267 L198.64039,361.521267 L198.64039,271.718587 L265.774829,271.718587 C309.532098,271.718587 332.729444,239.748833 335.306927,194.308677 C333.568624,152.281023 310.43122,122.047454 265.774829,122.047454 Z M254.206127,241.784361 L198.64039,241.784361 L198.64039,151.981681 L255.464898,151.981681 C287.233873,151.981681 303.118361,169.882348 303.118361,195.625783 C303.118361,223.883693 286.814283,241.784361 254.206127,241.784361 Z" id="Shape"></path>
        </g>
    </g>
</svg>