<?xml version="1.0" encoding="UTF-8"?>
<svg width="488px" height="488px" viewBox="0 0 488 488" version="1.1" xmlns="http://www.w3.org/2000/svg" xmlns:xlink="http://www.w3.org/1999/xlink">
    <!-- Generator: Sketch 49.1 (51147) - http://www.bohemiancoding.com/sketch -->
    <title>垃圾桶（空）</title>
    <desc>Created with Sketch.</desc>
    <defs></defs>
    <g id="Page-1" stroke="none" stroke-width="1" fill="none" fill-rule="evenodd">
        <g id="垃圾桶（空）" transform="translate(39.000000, 0.000000)" fill="#077500" fill-rule="nonzero">
            <path d="M317.276,487.808 L93.02,487.808 C66.396,487.808 44.892,466.304 44.892,439.68 L44.892,154.496 C44.892,144.768 52.572,137.088 62.3,137.088 C72.028,137.088 79.708,144.768 79.708,154.496 L79.708,439.168 C79.708,446.848 85.852,452.992 93.532,452.992 L317.788,452.992 C325.468,452.992 331.612,446.848 331.612,439.168 L331.612,154.496 C331.612,144.768 339.292,137.088 349.02,137.088 C358.748,137.088 366.428,144.768 366.428,154.496 L366.428,439.168 C365.404,465.792 343.9,487.808 317.276,487.808 Z M392.54,119.68 L17.756,119.68 C8.028,119.68 0.348,112 0.348,102.272 C0.348,92.544 8.028,84.864 17.756,84.864 L392.54,84.864 C402.268,84.864 409.948,92.544 409.948,102.272 C409.948,112 402.268,119.68 392.54,119.68 Z" id="Shape"></path>
            <path d="M313.692,119.68 L96.604,119.68 L96.604,53.632 C96.604,24.448 120.668,0.384 149.852,0.384 L260.444,0.384 C289.628,0.384 313.692,24.448 313.692,53.632 L313.692,119.68 Z M130.908,85.376 L279.388,85.376 L279.388,53.12 C279.388,42.368 270.684,34.176 260.444,34.176 L149.852,34.176 C139.1,34.176 130.908,42.88 130.908,53.12 L130.908,85.376 Z" id="Shape"></path>
        </g>
    </g>
</svg>